<svg width="60" height="60" viewBox="0 0 60 60" fill="none" xmlns="http://www.w3.org/2000/svg">
   <path d="M59.4851 46.3489L49.9778 36.8405L49.7819 34.4306L52.4021 32.8338C53.1432 32.3822 53.4438 31.4574 53.1098 30.6563L51.9292 27.8243L53.9274 25.496C54.4926 24.8376 54.4928 23.8651 53.9277 23.2064L51.929 20.8773L53.1098 18.0453C53.4438 17.2443 53.1432 16.3193 52.4021 15.8677L49.7819 14.2709L50.0304 11.213C50.1007 10.3479 49.5289 9.561 48.6846 9.36037L45.6996 8.65151L44.9905 5.66568C44.79 4.82111 44.0014 4.24982 43.138 4.31979L40.0792 4.56822L38.4822 1.94791C38.0306 1.20658 37.1052 0.906465 36.3044 1.24033L33.4727 2.42182L31.1449 0.423652C30.4864 -0.141543 29.5137 -0.141543 28.8552 0.423652L26.5271 2.42182L23.6953 1.24045C22.8941 0.906348 21.9692 1.20682 21.5175 1.94803L19.9206 4.56834L16.8617 4.3199C15.9967 4.25064 15.2099 4.82123 15.0092 5.6658L14.3001 8.65162L11.3151 9.36049C10.4708 9.56111 9.89904 10.348 9.96935 11.2131L10.2178 14.271L7.5976 15.8678C6.8565 16.3194 6.55592 17.2443 6.8899 18.0454L8.07068 20.8774L6.07205 23.2065C5.50697 23.8651 5.50709 24.8376 6.07228 25.4962L8.07057 27.8244L6.8899 30.6564C6.55592 31.4574 6.8565 32.3823 7.5976 32.834L10.2178 34.4308L10.022 36.8406L0.514901 46.3489C0.0841195 46.7796 -0.0929508 47.4027 0.0470883 47.9957C0.18701 48.5887 0.624119 49.0668 1.20197 49.2594L8.35603 51.6439L10.7404 58.7979C10.9331 59.3759 11.4112 59.8129 12.0042 59.9528C12.5972 60.0927 13.2203 59.9158 13.651 59.485L26.7047 46.4324L28.8549 48.2787C29.5103 48.8413 30.483 48.8472 31.1451 48.2787L33.2954 46.4324L46.349 59.4849C46.7798 59.9156 47.4029 60.0927 47.9959 59.9527C48.5888 59.8128 49.067 59.3756 49.2596 58.7978L51.644 51.6437L58.7981 49.2593C59.3761 49.0667 59.8131 48.5885 59.953 47.9956C60.0929 47.4027 59.9158 46.7795 59.4851 46.3489ZM13.1769 54.9879L11.4132 49.6974C11.2383 49.1725 10.8262 48.7606 10.3015 48.5856L5.01209 46.8226L12.2674 39.5672L14.3003 40.0501L15.0095 43.036C15.2101 43.8805 15.9994 44.4518 16.862 44.3819L19.9208 44.1334L21.4774 46.6878L13.1769 54.9879ZM37.641 41.3789L36.2656 43.6357L33.8267 42.6182C33.214 42.3625 32.509 42.474 32.0048 42.9068L30 44.6282L27.9951 42.9068C27.2903 42.3015 26.4974 42.483 26.1732 42.6182L23.7343 43.6357L22.359 41.3789C22.0135 40.812 21.3791 40.4882 20.7158 40.5416L18.0813 40.7556L17.4705 38.184C17.3171 37.5379 16.8126 37.0335 16.1666 36.88L13.5958 36.2693L13.8098 33.6356C13.8636 32.9737 13.5396 32.3379 12.9724 31.9923L10.7154 30.6169L11.7323 28.1779C11.9879 27.565 11.8763 26.8604 11.4437 26.3565L9.72256 24.3512L11.4438 22.3452C11.8761 21.8413 11.9878 21.1369 11.7322 20.524L10.7153 18.085L12.9723 16.7096C13.5395 16.3638 13.8634 15.7281 13.8097 15.0662L13.5957 12.4326L16.1665 11.822C16.8125 11.6686 17.317 11.1641 17.4704 10.518L18.0812 7.94639L20.7157 8.16025C21.3777 8.21451 22.0133 7.89014 22.3589 7.32295L23.7342 5.06615L26.1731 6.08369C26.7858 6.33928 27.4908 6.22783 27.9948 5.79529L30 4.07416L32.0051 5.79529C32.5092 6.22795 33.2138 6.33928 33.8267 6.08369L36.2656 5.06615L37.641 7.32295C37.9865 7.89002 38.6213 8.21475 39.2842 8.16025L41.9186 7.94639L42.5294 10.518C42.6828 11.1641 43.1873 11.6686 43.8334 11.822L46.4041 12.4326L46.1901 15.0662C46.1363 15.7282 46.4604 16.364 47.0276 16.7096L49.2846 18.085L48.2676 20.524C48.0121 21.1368 48.1236 21.8413 48.556 22.3452L50.2773 24.3512L48.5562 26.3565C48.1236 26.8604 48.0119 27.565 48.2675 28.1779L49.2845 30.6169L47.0274 31.9923C46.4603 32.338 46.1363 32.9738 46.19 33.6356L46.404 36.2693L43.8333 36.88C43.1872 37.0335 42.6827 37.5379 42.5293 38.184L41.9185 40.7556L39.284 40.5416C38.6222 40.4878 37.9865 40.8117 37.641 41.3789ZM49.6985 48.5856C49.1736 48.7606 48.7617 49.1725 48.5867 49.6974L46.8231 54.9879L38.5228 46.6876L40.0794 44.1333L43.1382 44.3817C44.0007 44.4517 44.7901 43.8804 44.9907 43.0358L45.6999 40.05L47.7328 39.5671L54.9881 46.8225L49.6985 48.5856Z" fill="#000000" />
   <path d="M44.4225 19.3428L39.097 14.0173C38.4107 13.3308 37.2976 13.3308 36.6111 14.0173L28.1172 22.5113L24.3301 18.7244C23.6438 18.0379 22.5307 18.0379 21.8442 18.7244L16.5188 24.05C15.8323 24.7364 15.8323 25.8494 16.5188 26.5359L26.8743 36.8914C27.5608 37.578 28.6739 37.5777 29.3602 36.8914L44.4226 21.8288C45.1091 21.1422 45.1091 20.0293 44.4225 19.3428ZM28.1172 33.1623L20.2476 25.2929L23.0871 22.4533L26.8742 26.2402C27.5605 26.9267 28.6736 26.9267 29.3601 26.2402L37.854 17.7462L40.6936 20.5858L28.1172 33.1623Z" fill="#000000" />
</svg>
