<svg width="66" height="66" viewBox="0 0 66 66" fill="none" xmlns="http://www.w3.org/2000/svg">
<path fill-rule="evenodd" clip-rule="evenodd" d="M40.2957 16.4679L47.6181 26.7193C48.3104 27.6885 49.7117 27.8097 50.5587 26.9627L55.6847 21.837C56.4397 21.0818 56.4398 19.8576 55.6847 19.1025C54.9298 18.3475 53.7055 18.3473 52.9502 19.1025L49.4383 22.6143L48.0559 20.6789L51.2909 17.4432C52.0459 16.6881 52.0458 15.4638 51.2907 14.7087C50.5357 13.9537 49.3113 13.9538 48.5562 14.709L45.7771 17.4886L44.3946 15.5529L48.3622 11.5856C49.1173 10.8304 49.1173 9.60622 48.3622 8.85109C47.6072 8.09596 46.3828 8.09609 45.6277 8.85109L40.5017 13.9768C39.8336 14.645 39.7463 15.6987 40.2957 16.4679Z" fill="black"/>
<path fill-rule="evenodd" clip-rule="evenodd" d="M24.4034 42.0454C23.7087 41.0729 22.3064 40.9586 21.4627 41.8022L18.6837 44.5815L17.3011 42.6461L20.5365 39.4109C21.2916 38.6559 21.2916 37.4316 20.5365 36.6764C19.7815 35.9212 18.5571 35.9212 17.802 36.6763L13.4082 41.0698C12.7397 41.7382 12.6526 42.7919 13.2021 43.5611L16.8638 48.6867C17.5575 49.6575 18.9592 49.7753 19.8046 48.9299L22.5835 46.1506L23.9662 48.086L20.7307 51.3211C19.9756 52.0761 19.9756 53.3005 20.7307 54.0556C21.486 54.8109 22.7104 54.8106 23.4652 54.0556L27.859 49.6621C28.5274 48.9937 28.6147 47.94 28.0651 47.1709L24.4034 42.0454Z" fill="black"/>
<path fill-rule="evenodd" clip-rule="evenodd" d="M31.7265 25.9353C31.0307 24.9612 29.6279 24.85 28.7859 25.6918L22.9277 31.5499C22.2594 32.2182 22.1721 33.2718 22.7215 34.0411L30.0439 44.2924C30.6491 45.1397 31.8514 45.3774 32.7412 44.742C33.6102 44.1213 33.8115 42.9136 33.1907 42.0446L31.0919 39.1063L34.1776 36.0206L35.9018 38.4345C36.5224 39.3036 37.73 39.5047 38.5991 38.8841C39.4681 38.2634 39.6694 37.0558 39.0486 36.1869L31.7265 25.9353ZM28.8131 35.916L26.8203 33.1261L29.9062 30.0404L31.899 32.8302L28.8131 35.916Z" fill="black"/>
<path fill-rule="evenodd" clip-rule="evenodd" d="M43.4299 28.6219L42.8475 29.2043L36.8519 20.8104C36.2312 19.9413 35.0234 19.7401 34.1545 20.3608C33.2856 20.9815 33.0844 22.1892 33.705 23.0582L41.0274 33.3096C41.72 34.2789 43.1211 34.4001 43.9682 33.5528L46.1645 31.3561C46.9195 30.601 46.9194 29.3768 46.1642 28.6216C45.4092 27.8665 44.1849 27.8666 43.4299 28.6219Z" fill="black"/>
<path fill-rule="evenodd" clip-rule="evenodd" d="M64.0655 0H43.5627C43.0498 0 42.558 0.203801 42.1955 0.566414L0.565373 42.1964C-0.18976 42.9516 -0.18976 44.1758 0.565373 44.9309L21.0682 65.4337C21.8233 66.1889 23.0475 66.1889 23.8027 65.4337L65.4327 23.8037C65.7953 23.4411 65.9991 22.9493 65.9991 22.4365V1.93359C65.9991 0.865734 65.1334 0 64.0655 0ZM62.1319 21.6354L22.4355 61.3319L4.66717 43.5636L44.3636 3.86719H62.1319V21.6354Z" fill="black"/>
<path fill-rule="evenodd" clip-rule="evenodd" d="M55.7812 12.1513C56.8486 12.1513 57.7148 11.2849 57.7148 10.2177C57.6103 7.65216 53.9519 7.65293 53.8477 10.2177C53.8477 11.2847 54.7139 12.1513 55.7812 12.1513Z" fill="black"/>
</svg>
