<svg width="60" height="60" viewBox="0 0 60 60" fill="none" xmlns="http://www.w3.org/2000/svg">
<g clip-path="url(#clip0_46_1159)">
<path d="M50.055 21.8428C50.3819 21.5236 50.5852 21.0787 50.5852 20.5859V13.0547C50.5852 12.0839 49.7982 11.2969 48.8274 11.2969H41.9463C45.0073 6.48166 41.3885 -0.0557684 35.6478 0.000363398C33.3861 0.000363398 31.3592 1.02058 29.9996 2.62379C28.64 1.0207 26.613 0.000363398 24.3512 0.000363398C18.6102 -0.05612 14.9919 6.48376 18.0529 11.297H11.1717C10.201 11.297 9.41396 12.0841 9.41396 13.0548V20.586C9.41396 21.0789 9.61739 21.5237 9.9441 21.8429C-1.19472 37.6863 10.5994 60.1649 29.9998 59.9993C49.3981 60.1654 61.1959 37.683 50.055 21.8428ZM47.0696 14.8126V18.8282H35.523V14.8126H47.0696ZM31.7574 7.40648C31.7574 5.26117 33.5027 3.51593 35.6479 3.51593C40.8095 3.72967 40.8076 11.0842 35.6479 11.297H31.7574V7.40648ZM24.3512 3.51593C26.4965 3.51593 28.2418 5.26129 28.2418 7.40648V11.297H24.3512C19.1885 11.0827 19.1926 3.72838 24.3512 3.51593ZM13.1796 47.9296C7.91433 41.0802 7.83465 30.3349 13.1796 23.3568V47.9296ZM24.4762 55.7428C21.6322 54.9618 18.9825 53.5799 16.6952 51.6781V22.3438H24.4762V55.7428ZM24.4762 18.8282H12.9295V14.8126H24.4762V18.8282ZM32.0074 56.388C30.6751 56.5154 29.3241 56.5154 27.9917 56.388V22.3438H32.0074V56.388ZM32.0074 18.8282H27.9917V14.8126H32.0074V18.8282ZM43.304 51.6781C41.0164 53.58 38.3667 54.962 35.523 55.7429V22.3438H43.304V51.6781ZM46.8195 47.9296V23.3568C52.1647 30.3344 52.0846 41.081 46.8195 47.9296Z" fill="white"/>
</g>
<defs>
<clipPath id="clip0_46_1159">
<rect width="60" height="60" fill="white"/>
</clipPath>
</defs>
</svg>
