<svg width="60" height="60" viewBox="0 0 60 60" fill="none" xmlns="http://www.w3.org/2000/svg">
<path d="M59.4778 41.3981L54.1512 36.1409C53.4648 35.4634 52.3522 35.4636 51.6662 36.1415L48.3105 39.4563C51.1071 24.9406 39.3349 11.0021 24.356 11.1518C10.9332 11.1516 0.0127228 21.9356 0.0127228 35.1908C-0.16136 54.3279 22.3385 66.0027 38.1572 54.992L41.9358 58.722C42.6221 59.3994 43.7345 59.3993 44.4207 58.7217L59.4782 43.8525C60.159 43.2061 60.1588 42.0443 59.4778 41.3981ZM24.3562 55.7595C-3.27588 54.6298 -3.26873 15.7482 24.3564 14.6221C39.6041 14.4415 49.9588 30.9781 43.0067 44.3574L39.1389 40.5386C39.7967 37.1963 38.3202 33.6373 35.7163 31.684C35.7415 31.66 35.7664 31.6358 35.7911 31.6114C39.2543 28.217 36.7666 22.292 31.8851 22.3035H29.5914C27.8951 17.3767 20.8157 17.3796 19.1212 22.3035H18.7097C9.85896 22.3515 6.11782 33.3859 12.9962 38.6976C12.9711 38.7214 12.9462 38.7455 12.9216 38.7699C9.45832 42.1642 11.9456 48.0894 16.8274 48.078H19.1208C20.8168 53.0047 27.8968 53.0021 29.5913 48.078H30.0028C30.3769 48.078 30.7451 48.0534 31.1078 48.0107C31.1533 48.0689 31.2014 48.1255 31.2547 48.1781L35.6244 52.4902C32.2678 54.6351 28.4103 55.7595 24.3562 55.7595ZM30.0028 37.1728H18.7097C11.0511 36.8589 11.0569 26.0852 18.7097 25.7741H20.5919C21.5624 25.7741 22.3491 24.9954 22.3491 24.037C22.4598 21.4092 26.2541 21.411 26.3635 24.0388C26.3635 24.9972 27.1502 25.7741 28.1207 25.7741H31.8851C34.5548 25.8848 34.5402 29.639 31.8851 29.7383H18.7097C16.3782 29.83 16.3799 33.118 18.7097 33.2088H30.0028C37.6614 33.5228 37.6556 44.2965 30.0028 44.6075H28.1207C27.1502 44.6075 26.3635 45.3845 26.3635 46.3428C26.2535 48.972 22.4586 48.9721 22.3491 46.3428C22.3491 45.3845 21.5624 44.6075 20.5919 44.6075H16.8274C14.159 44.4976 14.1713 40.743 16.8274 40.6434H30.0028C32.3343 40.5516 32.3326 37.2637 30.0028 37.1728ZM43.178 55.041L34.9825 46.9508L37.8232 44.1472L41.9357 48.2078C42.6233 48.8867 43.7368 48.8835 44.4209 48.2074L52.9096 39.8223L55.7503 42.6259L43.178 55.041Z" fill="white"/>
<path d="M8.53587 10.3966C9.22236 11.0745 10.3348 11.0742 11.021 10.3966C11.7072 9.71904 11.7072 8.62027 11.021 7.94259L10.2564 7.18764H24.356C40.0415 7.18764 50.2648 18.9504 52.2887 30.3144C52.7899 32.5738 56.0656 31.986 55.7501 29.7131C53.2365 15.6001 40.7032 3.7171 24.356 3.7171H10.2563L11.021 2.96203C11.7072 2.28435 11.7072 1.1857 11.021 0.508016C10.3348 -0.16978 9.22213 -0.169548 8.53587 0.508016L4.77153 4.22542C4.08527 4.90298 4.08527 6.00176 4.77153 6.67943L8.53587 10.3966Z" fill="white"/>
</svg>
