<svg width="54" height="60" viewBox="0 0 54 60" fill="none" xmlns="http://www.w3.org/2000/svg">
<path d="M50.4232 20.6889C45.6585 10.1007 36.3914 4.55106 35.3763 3.98739C34.7658 3.64801 34.0122 3.70473 33.4569 4.12883C32.9014 4.5527 32.6502 5.26742 32.8163 5.94617C32.9687 6.56891 33.7623 10.7345 31.4833 11.2272C30.4564 9.92914 29.6722 8.0443 29.1989 5.71496C28.7587 3.54887 28.7492 1.77383 28.7492 1.75613C28.7485 1.17781 28.4634 0.63676 27.9866 0.309338C27.5092 -0.018553 26.9006 -0.0902718 26.3604 0.117736C23.6429 1.1627 11.2909 6.90055 4.80913 18.3683C-5.7913 36.393 5.36694 59.8146 26.9918 60.0006C47.4176 59.8549 58.9141 38.6184 50.4232 20.6889ZM36.5515 9.0268C39.7318 11.4567 44.0141 15.5417 46.8234 21.2955C45.3593 20.3175 43.7504 19.4837 42.1153 18.6369C39.6205 17.3447 36.8661 15.9179 34.2147 13.7933C34.7383 13.4165 36.3029 12.21 36.5515 9.0268ZM26.9914 56.4849C19.6551 56.4849 13.6868 50.5165 13.6868 43.1803C14.4176 25.5297 39.568 25.5349 40.2962 43.1804C40.2961 50.5165 34.3276 56.4849 26.9914 56.4849ZM24.9835 24.3521C24.9835 23.245 25.8844 22.3443 26.9914 22.3443C29.6551 22.4546 29.6544 26.2501 26.9914 26.36C25.8844 26.3599 24.9835 25.4592 24.9835 24.3521ZM41.9665 50.8357C45.0187 45.2095 44.147 37.3902 40.057 32.6001L41.4138 31.2438C42.9978 29.5293 40.6414 27.1748 38.9284 28.7574L37.571 30.1142C35.8856 28.7469 33.9316 27.6988 31.8016 27.062C33.8893 23.4644 31.173 18.7878 26.9913 18.8287C22.8101 18.7876 20.093 23.4651 22.1811 27.062C20.0511 27.6988 18.0972 28.7469 16.4117 30.1142L15.0544 28.7574C14.3678 28.0711 13.2547 28.0713 12.5685 28.7579C11.8821 29.4445 11.8823 30.5574 12.5689 31.2438L13.9257 32.6001C9.83553 37.3898 8.96413 45.2103 12.0163 50.8357C3.24514 43.4355 2.09506 30.0088 7.84041 20.1504C11.9222 12.8939 19.009 7.57121 25.4255 4.39766C26.4355 12.5349 29.6815 16.1558 40.4986 21.7585C46.0455 24.6315 49.7101 26.5295 49.7101 33.7661C49.7101 40.5616 46.7103 46.6687 41.9665 50.8357Z" fill="white"/>
<path d="M31.0729 36.6126L25.7483 41.9371C25.0618 42.6236 25.0618 43.7366 25.7483 44.423C26.4347 45.1096 27.5479 45.1094 28.2342 44.423L33.5588 39.0985C34.2453 38.412 34.2453 37.2991 33.5588 36.6126C32.8723 35.926 31.7593 35.926 31.0729 36.6126Z" fill="white"/>
</svg>
