<svg width="60" height="42" viewBox="0 0 60 42" fill="none" xmlns="http://www.w3.org/2000/svg">
<path d="M48.8282 6.24854H43.0547V2.35791C43.0547 1.38713 42.2677 0.600098 41.2969 0.600098H1.75781C0.787031 0.600098 0 1.38713 0 2.35791V34.3657C0 35.3365 0.787031 36.1235 1.75781 36.1235H7.74375C9.65672 43.6096 20.2212 43.6045 22.1312 36.1235H37.8687C39.7816 43.6096 50.3461 43.6045 52.2561 36.1235H58.2422C59.213 36.1235 60 35.3365 60 34.3657V17.4204C60 11.2602 54.9882 6.24854 48.8282 6.24854ZM14.9375 38.2563C12.7922 38.2563 11.0469 36.5109 11.0469 34.3657C11.2605 29.2043 18.6154 29.2058 18.8282 34.3657C18.8282 36.5109 17.0828 38.2563 14.9375 38.2563ZM39.5391 29.4385C38.7439 30.3289 38.1611 31.4117 37.8687 32.6078H22.1312C20.2182 25.1218 9.65379 25.1269 7.74375 32.6078H3.51562V4.1156H39.5391V29.4385ZM45.0625 38.2563C42.9171 38.2563 41.1718 36.5109 41.1718 34.3657C41.3855 29.2043 48.7403 29.2058 48.9531 34.3657C48.9531 36.5109 47.2078 38.2563 45.0625 38.2563ZM56.4844 32.6079H52.2581C51.4669 29.3697 48.5409 26.9594 45.0626 26.9594H43.0547V9.76416H47.0704V21.1861C47.0704 22.1569 47.8574 22.9439 48.8282 22.9439H56.4844V32.6079ZM56.4844 19.4281H50.586V9.96772C53.9631 10.7642 56.4844 13.8035 56.4844 17.4204V19.4281Z" fill="white"/>
</svg>
