<svg width="66" height="66" viewBox="0 0 66 66" fill="none" xmlns="http://www.w3.org/2000/svg">
<g clip-path="url(#clip0_46_1066)">
<path d="M57.8535 16.6209H51.503V7.16195C51.503 3.24261 48.3351 0.0529785 44.3919 0.0529785C41.6128 0.0529785 39.3519 2.31389 39.3519 5.09298C39.3519 6.75747 38.9224 8.40146 38.1111 9.85442C19.8373 3.37487 -0.298027 17.8091 0.00334207 37.2477C0.470734 68.1626 41.7606 76.9238 54.971 49.482H57.8535C62.3419 49.482 66 45.8508 66 41.3355V24.7674C66 20.2671 62.3604 16.6209 57.8535 16.6209ZM28.8595 12.2039C31.3568 12.2039 33.801 12.5669 36.1525 13.2852L31.8795 20.7629H28.722V20.6255C28.722 19.5576 27.8564 18.6919 26.7885 18.6919H20.438V18.5544C20.438 17.4866 19.5723 16.6209 18.5045 16.6209H14.6628C18.7988 13.7476 23.6982 12.2039 28.8595 12.2039ZM24.855 22.559V43.5439H20.438V22.559H24.855ZM3.87009 37.1934C3.87009 30.9866 6.1408 25.0862 10.2817 20.4879H16.571V45.615H5.3264C4.35952 42.9208 3.87009 40.0938 3.87009 37.1934ZM42.8749 57.8799C34.66 63.5941 23.0589 63.5941 14.844 57.8799C11.6264 55.6942 8.98756 52.8256 7.09762 49.4818H18.5044C19.5722 49.4818 20.4379 48.6161 20.4379 47.5483V47.4108H26.7884C27.6948 47.4108 28.4557 46.7872 28.6649 45.9453L29.815 47.095C31.3539 48.6341 33.3996 49.4817 35.5748 49.4817H50.6213C48.7314 52.8256 46.0925 55.6942 42.8749 57.8799ZM62.133 41.3353C62.133 43.7032 60.2153 45.6148 57.8535 45.6148H35.5748C34.4491 45.6148 33.3463 45.1577 32.549 44.3604C31.2472 43.0595 29.58 41.3924 28.722 40.5345V24.6299H33.0015C33.6954 24.6299 34.336 24.2581 34.6802 23.6556L41.4236 11.8547C42.598 9.79822 43.2189 7.4601 43.2189 5.09285C43.2189 4.44603 43.7451 3.91986 44.394 3.91986C46.1933 3.91986 47.6358 5.37566 47.6358 7.16183V18.5543C47.6358 19.6221 48.5015 20.4878 49.5693 20.4878H57.8534C60.2138 20.4878 62.1329 22.3955 62.1329 24.7673V41.3353H62.133Z" fill="black"/>
</g>
<defs>
<clipPath id="clip0_46_1066">
<rect width="66" height="66" fill="white"/>
</clipPath>
</defs>
</svg>
