<svg width="66" height="66" viewBox="0 0 66 66" fill="none" xmlns="http://www.w3.org/2000/svg">
<g clip-path="url(#clip0_46_1109)">
<path d="M31.9643 41.1471H39.2131C40.1584 41.1471 40.9651 40.4638 41.1204 39.5314L43.1914 27.1049C43.3877 25.9263 42.4774 24.8534 41.2841 24.8534H34.0353C33.0901 24.8534 32.2835 25.5367 32.128 26.4691L30.057 38.8957C29.8606 40.0744 30.7712 41.1471 31.9643 41.1471ZM35.6733 28.7206H39.0016L37.5751 37.2799H34.2469L35.6733 28.7206Z" fill="black"/>
<path d="M17.4673 41.1471H24.7161C25.6614 41.1471 26.468 40.4638 26.6234 39.5314L28.6944 27.1049C28.8909 25.9262 27.9803 24.8534 26.7871 24.8534H19.5384C18.5931 24.8534 17.7865 25.5367 17.6311 26.4691L15.5599 38.8957C15.3636 40.0744 16.2742 41.1471 17.4673 41.1471ZM21.1765 28.7206H24.5047L23.0783 37.2799H19.75L21.1765 28.7206Z" fill="black"/>
<path d="M9.18215 30.7919H9.66104L8.31036 38.896C8.13479 39.9493 8.84635 40.9455 9.89977 41.1212C11.4011 41.3723 12.0351 40.0706 12.1249 39.5317L14.1961 27.1052C14.3717 26.0519 13.6601 25.0557 12.6067 24.88C11.5531 24.7039 10.5571 25.416 10.3815 26.4694L10.3056 26.9247H9.18202C6.61666 27.0269 6.61872 30.6907 9.18215 30.7919Z" fill="black"/>
<path d="M47.4609 40.8225C48.6071 41.5867 49.7431 40.8852 50.1423 40.2863L58.4267 27.8597C59.0192 26.9712 58.779 25.7707 57.8905 25.1783C57.0019 24.586 55.8014 24.826 55.2091 25.7146L46.9246 38.1411C46.3322 39.0296 46.5722 40.2302 47.4609 40.8225Z" fill="black"/>
<path d="M47.8713 30.7657C49.37 31.017 50.0062 29.716 50.096 29.1759L50.4409 27.1049C50.6163 26.0516 49.9045 25.0556 48.8511 24.8801C47.8001 24.704 46.8017 25.4164 46.6263 26.4699L46.2815 28.5409C46.106 29.5942 46.8178 30.5904 47.8713 30.7657Z" fill="black"/>
<path d="M57.48 35.2357C56.4291 35.0596 55.4306 35.772 55.2552 36.8255L54.9104 38.8965C54.7349 39.9498 55.4467 40.9459 56.5002 41.1213C57.999 41.3725 58.6351 40.0716 58.7249 39.5315L59.0698 37.4605C59.2453 36.4072 58.5334 35.411 57.48 35.2357Z" fill="black"/>
<path d="M64.0664 16.5691H61.6191C49.2726 -5.39824 16.7221 -5.39128 4.38088 16.5691H1.93359C0.865734 16.5691 0 17.4348 0 18.5026V47.498C0 48.5659 0.865734 49.4316 1.93359 49.4316H4.38088C16.7274 71.3991 49.2779 71.392 61.6191 49.4316H64.0664C65.1343 49.4316 66 48.5659 66 47.498V18.5026C66 17.4348 65.1343 16.5691 64.0664 16.5691ZM33 3.86754C42.711 3.86754 51.6579 8.66091 57.0574 16.5691H51.4546C42.0157 5.59527 23.983 5.59668 14.5454 16.5691H8.94261C14.342 8.66091 23.2888 3.86754 33 3.86754ZM45.8299 16.5691H20.1701C27.3622 10.7224 38.6378 10.7226 45.8299 16.5691ZM33 62.1332C23.2888 62.1332 14.342 57.3398 8.94261 49.4316H14.5454C23.9844 60.4056 42.0166 60.404 51.4546 49.4316H57.0574C51.6579 57.3398 42.711 62.1332 33 62.1332ZM20.1701 49.4316H45.8299C38.6375 55.2782 27.3623 55.2781 20.1701 49.4316ZM62.1328 45.5644H3.86719V20.4362H62.1328V45.5644Z" fill="black"/>
</g>
<defs>
<clipPath id="clip0_46_1109">
<rect width="66" height="66" fill="white"/>
</clipPath>
</defs>
</svg>
