<svg width="66" height="66" viewBox="0 0 66 66" fill="none" xmlns="http://www.w3.org/2000/svg">
<g clip-path="url(#clip0_46_1082)">
<path fill-rule="evenodd" clip-rule="evenodd" d="M54.938 26.1814V61.0905H54.9381V64.3632H10.7063L10.7063 62.1814V26.1814H5.68247C5.26086 25.8007 5 25.2793 5 24.7032V15.6658C5 14.5009 6.06368 13.5564 7.37569 13.5564H16.6757C12.5387 7.78052 17.429 -0.067344 25.1881 0.000436077C28.245 0.000436077 30.9845 1.22484 32.822 3.14855C34.6596 1.2247 37.399 0.000436077 40.4558 0.000436077C48.2145 -0.0669221 53.1054 7.77798 48.9683 13.5563H58.2684C59.5804 13.5563 60.6441 14.5007 60.6441 15.6656V24.703C60.6441 25.2792 60.3833 25.8007 59.9615 26.1814H54.938ZM14.8407 61.0905V26.8125H25.357V61.0905H14.8407ZM30.1084 61.0905V26.8125H35.5357V61.0905H30.1084ZM40.2871 61.0905V26.8125H50.8033V61.0905H40.2871ZM32.3038 71.9995C32.4573 72.0005 32.6112 72.0005 32.7654 71.9995H32.3038ZM32.8791 71.9995C33.034 72.0005 33.1884 72.0005 33.3425 71.9995H32.8791ZM55.8927 17.7751V22.5938H40.2871V17.7751H55.8927ZM35.1977 8.88778C35.1977 6.3134 37.5566 4.21911 40.4559 4.21911C47.4319 4.47561 47.4294 13.3011 40.4559 13.5564H35.1977V8.88778ZM25.1881 4.21911C28.0876 4.21911 30.4463 6.31354 30.4463 8.88778V13.5564H25.1881C18.2106 13.2992 18.2161 4.47406 25.1881 4.21911ZM25.357 22.5938H9.75138V17.7751H25.357V22.5938ZM35.5357 22.5938H30.1084V17.7751H35.5357V22.5938Z" fill="black"/>
</g>
<defs>
<clipPath id="clip0_46_1082">
<rect width="66" height="66" fill="white"/>
</clipPath>
</defs>
</svg>
