<svg width="66" height="66" viewBox="0 0 66 66" fill="none" xmlns="http://www.w3.org/2000/svg">
<path d="M30.2658 28.8589L29.562 29.5627C27.8199 31.4501 30.4134 34.0378 32.2964 32.2971L33.0002 31.5933L33.704 32.2971C34.4592 33.0523 35.6836 33.0521 36.4384 32.2971C37.1936 31.542 37.1936 30.3178 36.4384 29.5627L35.7346 28.8589L44.7226 19.8709C46.4645 17.9847 43.8724 15.3954 41.9882 17.1364L33.0002 26.1244L28.1543 21.2786C27.3993 20.5235 26.175 20.5235 25.4198 21.2786C24.6647 22.0337 24.6647 23.2579 25.4198 24.013L30.2658 28.8589Z" fill="black"/>
<path d="M64.0327 49.5694L65.9 43.9678C66.0964 43.3782 65.9976 42.7299 65.6342 42.2258C65.2708 41.7215 64.6871 41.4228 64.0657 41.4228H58.9803C68.3376 22.6658 53.9846 -0.247279 32.9996 0.00227712C12.0181 -0.248052 -2.34062 22.669 7.01991 41.4228H1.93444C1.31287 41.4228 0.729196 41.7216 0.365948 42.2258C0.00257086 42.73 -0.0962975 43.3782 0.10015 43.9678L1.96744 49.5694L0.10015 55.1711C-0.0962975 55.7607 0.00257086 56.409 0.365948 56.9131C0.729324 57.4174 1.313 57.716 1.93444 57.716H10.356V64.0667C10.356 65.1345 11.2217 66.0002 12.2896 66.0002H53.7103C54.7781 66.0002 55.6438 65.1345 55.6438 64.0667V57.716H64.0654C64.687 57.716 65.2707 57.4172 65.6339 56.9131C65.9973 56.4088 66.0962 55.7607 65.8997 55.1711L64.0327 49.5694ZM10.4581 18.0773L12.3035 19.1428C13.2284 19.6768 14.4108 19.36 14.9447 18.4351C15.4786 17.5104 15.1618 16.3278 14.237 15.7939L12.398 14.7321C14.1411 12.198 16.3388 10.0004 18.8729 8.25721L19.9348 10.0965C20.4687 11.0214 21.6513 11.3381 22.576 10.8042C23.5008 10.2703 23.8176 9.08773 23.2837 8.16298L22.2181 6.31722C24.9335 5.01311 27.9192 4.1853 31.0663 3.94335V6.07772C31.1685 8.64314 34.8322 8.64121 34.9334 6.07772V3.94335C38.0806 4.1853 41.0662 5.01311 43.7817 6.31722L42.7162 8.16285C42.1823 9.0876 42.4991 10.2702 43.4238 10.8041C44.3488 11.3382 45.5314 11.0213 46.0651 10.0964L47.127 8.25708C49.6611 10.0002 51.8589 12.1979 53.6019 14.7321L51.7628 15.7939C50.8381 16.3278 50.5212 17.5104 51.0551 18.4351C51.5891 19.3599 52.7716 19.6768 53.6964 19.1428L55.5417 18.0773C56.8457 20.7926 57.6735 23.7783 57.9155 26.9254H55.7814C53.2159 27.0276 53.2179 30.6913 55.7814 30.7925H57.9133C57.6753 33.9091 56.8657 36.9025 55.5532 39.6472L53.6964 38.5751C51.4237 37.3806 49.5934 40.5548 51.7628 41.924L53.6177 42.9949C51.9001 45.4935 49.7153 47.6924 47.1304 49.4662L46.0649 47.6211C45.531 46.6965 44.3483 46.3795 43.4236 46.9136C42.4988 47.4476 42.1821 48.6301 42.716 49.5549L42.8037 49.7066H23.196L23.2837 49.5549C23.8177 48.6302 23.5009 47.4476 22.5761 46.9136C21.6514 46.3797 20.4688 46.6964 19.9348 47.6211L18.8693 49.4662C16.2843 47.6923 14.0996 45.4935 12.382 42.9949L14.2369 41.924C16.4075 40.5529 14.5739 37.3808 12.3034 38.5751L10.4465 39.6472C9.13417 36.9025 8.3244 33.9091 8.08645 30.7925H10.2184C12.7838 30.6903 12.7819 27.0266 10.2184 26.9254H8.08426C8.32621 23.7783 9.15402 20.7927 10.4581 18.0773ZM12.2897 49.7069C11.2219 49.7069 10.3562 50.5726 10.3562 51.6405V53.8489H4.61716L5.83993 50.1808C5.97219 49.7839 5.97219 49.3547 5.83993 48.9579L4.61716 45.2898H9.2806C10.3863 46.8799 11.6573 48.3631 13.0613 49.7069H12.2897ZM51.7769 62.1331H14.2233V53.574H51.7769V62.1331ZM60.1602 50.1809L61.383 53.8491H55.644V51.6406C55.644 50.5727 54.7782 49.707 53.7104 49.707H52.9388C54.3428 48.3632 55.6138 46.8802 56.7195 45.2899H61.383L60.1602 48.958C60.0278 49.3549 60.0278 49.784 60.1602 50.1809Z" fill="black"/>
</svg>
