<svg width="66" height="66" viewBox="0 0 66 66" fill="none" xmlns="http://www.w3.org/2000/svg">
<path d="M53.711 6.21328H47.3602V1.93359C47.3602 0.865734 46.4944 0 45.4266 0H1.93359C0.865734 0 0 0.865734 0 1.93359V37.1421C0 38.21 0.865734 39.0757 1.93359 39.0757H8.51813C10.6224 47.3104 22.2433 47.3049 24.3443 39.0757H41.6555C43.7598 47.3104 55.3807 47.3049 57.4817 39.0757H64.0664C65.1343 39.0757 66 38.21 66 37.1421V18.5023C66 11.7261 60.4871 6.21328 53.711 6.21328ZM16.4313 41.4218C14.0714 41.4218 12.1516 39.5019 12.1516 37.1421C12.3866 31.4646 20.4769 31.4663 20.711 37.1421C20.711 39.5019 18.7911 41.4218 16.4313 41.4218ZM43.493 31.7223C42.6183 32.7017 41.9772 33.8928 41.6555 35.2084H24.3443C22.2401 26.9739 10.6192 26.9794 8.51813 35.2084H3.86719V3.86706H43.493V31.7223ZM49.5687 41.4218C47.2088 41.4218 45.289 39.5019 45.289 37.1421C45.524 31.4646 53.6143 31.4663 53.8484 37.1421C53.8484 39.5019 51.9286 41.4218 49.5687 41.4218ZM62.1328 35.2086H57.4839C56.6136 31.6466 53.395 28.9953 49.5688 28.9953H47.3602V10.0805H51.7774V22.6446C51.7774 23.7124 52.6431 24.5782 53.711 24.5782H62.1328V35.2086ZM62.1328 20.7109H55.6446V10.3044C59.3594 11.1806 62.1328 14.5237 62.1328 18.5023V20.7109Z" fill="black"/>
<line x1="66" y1="53" y2="53" stroke="black" stroke-width="4" stroke-dasharray="5 5"/>
<line x1="66" y1="64" y2="64" stroke="black" stroke-width="4"/>
</svg>
