<?xml version="1.0" standalone="no"?>
<!DOCTYPE svg PUBLIC "-//W3C//DTD SVG 20010904//EN"
 "http://www.w3.org/TR/2001/REC-SVG-20010904/DTD/svg10.dtd">
<svg version="1.0" xmlns="http://www.w3.org/2000/svg"
 width="1600.000000pt" height="1600.000000pt" viewBox="0 0 1600.000000 1600.000000"
 preserveAspectRatio="xMidYMid meet">
<metadata>
Created by potrace 1.14, written by Peter Selinger 2001-2017
</metadata>
<g transform="translate(0.000000,1600.000000) scale(0.100000,-0.100000)"
fill="#000000" stroke="none">
<path d="M2084 12614 c1 -25 -1 -47 -6 -50 -5 -3 -5 -10 -2 -16 11 -18 10
-148 -1 -148 -7 0 -7 -3 0 -8 6 -4 9 -40 8 -82 -2 -41 -3 -79 -3 -85 0 -11 0
-180 0 -210 0 -11 0 -78 0 -150 0 -71 0 -134 0 -140 0 -5 1 -155 3 -332 1
-212 -1 -323 -8 -323 -7 0 -7 -3 0 -8 7 -5 10 -427 10 -1277 l0 -1270 388 -2
387 -2 0 632 c1 348 2 749 3 891 l2 260 203 0 c112 1 208 -1 212 -4 17 -11
121 -227 144 -301 38 -117 45 -181 32 -281 -6 -45 -20 -74 -53 -109 -22 -24
-28 -26 -61 -17 -46 13 -82 37 -152 104 -60 57 -105 94 -114 94 -11 0 -6 -36
6 -48 7 -7 9 -12 5 -12 -4 0 4 -23 18 -51 59 -116 112 -290 130 -432 2 -16 6
-40 9 -55 9 -48 24 -187 31 -287 2 -27 4 -50 5 -50 1 0 3 -13 5 -30 5 -69 23
-216 31 -260 2 -10 6 -35 9 -55 3 -20 8 -47 11 -60 3 -14 7 -36 10 -50 13 -65
47 -178 68 -221 l22 -47 -23 9 c-12 4 -25 4 -28 0 -3 -5 -25 -3 -50 5 -45 13
-308 16 -300 3 4 -5 -96 -3 -249 6 -46 2 -85 0 -92 -6 -8 -6 -14 -7 -18 0 -6
9 -14 9 -76 -4 -14 -2 -43 -6 -65 -7 -22 -1 -43 -6 -46 -11 -4 -5 -18 -1 -33
8 -14 10 -35 15 -46 12 -11 -3 -20 -2 -20 2 0 12 -337 0 -357 -12 -10 -6 -40
-4 -98 8 -54 12 -201 8 -230 -5 -18 -9 -285 1 -285 10 0 3 -35 4 -77 2 -126
-6 -150 -9 -162 -16 -6 -4 -11 -2 -11 4 0 6 -4 9 -10 5 -13 -8 -86 -8 -140 1
-66 10 -230 11 -230 1 0 -4 -7 -4 -16 1 -11 6 -32 5 -58 -3 -22 -7 -50 -9 -61
-5 -11 4 -26 5 -32 3 -14 -5 -16 7 -15 72 5 218 3 387 -4 394 -20 18 -73 30
-81 18 -5 -7 -9 -97 -10 -202 -1 -104 -4 -226 -7 -270 -4 -44 -8 -122 -11
-174 -3 -52 -7 -96 -10 -99 -3 -3 0 -12 7 -19 7 -9 8 -17 2 -21 -12 -9 -12
-122 0 -141 6 -9 5 -12 -2 -7 -7 4 -11 -4 -12 -21 -1 -52 -6 -78 -19 -116 -16
-48 -9 -67 26 -67 39 0 76 27 70 51 -3 11 -2 19 2 19 8 0 12 25 14 98 1 28 4
52 7 52 5 0 11 82 13 202 1 38 6 68 12 68 6 0 3 5 -5 11 -13 9 -13 10 0 6 8
-2 14 -11 13 -18 -2 -10 7 -15 30 -16 17 0 48 -4 67 -8 61 -12 250 -5 250 10
0 6 5 3 11 -5 8 -11 12 -12 16 -2 2 6 9 10 14 6 5 -3 9 0 9 7 0 9 3 9 14 0 10
-8 16 -9 21 -1 3 5 11 10 16 10 6 0 8 -4 5 -9 -4 -5 2 -8 11 -6 10 1 22 0 28
-3 10 -6 41 -12 60 -12 121 0 318 11 332 18 22 12 109 8 126 -6 13 -11 282
-10 293 0 3 4 17 3 30 -2 13 -5 24 -6 24 -2 0 7 40 15 65 13 28 -2 55 -8 60
-12 11 -11 158 0 166 13 7 10 9 9 9 -4 0 -10 6 -15 18 -12 9 2 46 6 82 8 36 2
65 5 65 6 0 1 24 2 53 3 28 1 52 0 52 -3 0 -18 222 -16 246 2 6 5 23 4 37 -1
15 -6 28 -7 31 -3 8 13 117 14 132 1 21 -17 220 -16 216 1 -3 11 0 11 12 1 12
-10 23 -10 45 -3 16 6 31 7 33 2 2 -4 14 -3 28 3 33 13 50 14 80 4 27 -10 56
-15 108 -20 27 -3 39 -13 65 -53 46 -69 68 -94 192 -217 125 -124 128 -127
173 -153 17 -10 32 -21 32 -25 0 -3 -314 -6 -698 -5 l-697 2 0 -2076 0 -2075
855 1 c768 0 949 3 1015 17 11 3 40 8 65 13 51 9 59 11 63 14 1 1 11 3 22 5
51 10 82 17 100 25 11 4 43 16 70 26 163 57 334 163 444 275 74 75 171 204
171 229 0 5 5 10 10 10 6 0 10 4 10 10 0 5 13 37 29 70 16 33 27 60 25 60 -3
0 2 12 10 28 17 34 55 182 63 247 8 60 8 308 1 350 -3 17 -13 62 -22 100 -15
66 -23 88 -69 195 -20 47 -83 157 -102 176 -5 6 -17 22 -25 35 -44 69 -273
269 -308 269 -6 0 -12 3 -14 8 -4 10 -101 57 -172 83 l-60 22 70 34 c71 35
151 80 169 95 5 5 21 18 35 29 14 12 34 29 45 38 38 30 115 131 144 190 42 83
68 175 76 269 3 29 7 57 10 62 3 5 1 12 -5 15 -7 4 -7 11 -2 18 9 12 8 33 -2
147 -8 81 -13 109 -32 185 -20 77 -23 83 -74 185 -64 129 -122 202 -235 295
-33 28 -63 55 -67 60 -5 7 -8 7 -8 0 0 -6 -3 -6 -8 0 -20 29 -220 132 -250
130 -38 -3 -10 13 33 18 22 3 57 11 79 17 21 6 46 13 56 15 39 7 171 75 245
125 42 29 108 82 145 120 66 67 160 188 160 208 0 6 4 12 8 14 4 2 17 21 29
43 19 37 23 40 64 41 24 0 49 -2 54 -5 15 -8 135 -10 135 -2 0 4 34 7 75 6 41
-1 75 3 75 7 0 5 5 6 10 3 6 -3 10 0 10 7 0 8 3 9 8 3 4 -5 24 -10 45 -10 21
1 41 -3 43 -7 3 -5 10 -6 15 -3 5 4 15 3 22 -2 14 -9 97 -12 112 -4 15 8 125
9 130 1 2 -4 34 -1 69 5 36 7 68 10 71 7 8 -8 31 -12 108 -16 61 -3 86 5 55
17 -8 4 -7 6 3 6 9 1 19 -5 22 -13 6 -14 21 -15 190 -3 26 2 50 0 53 -5 3 -4
13 -4 22 1 11 6 23 5 34 -3 20 -15 89 -11 99 5 4 8 8 8 10 0 5 -15 51 -21 67
-9 6 6 12 7 12 4 0 -4 10 -2 21 5 16 8 20 8 14 -1 -6 -9 -2 -9 14 -1 14 8 21
8 21 1 0 -6 10 -4 23 5 13 8 27 12 31 8 4 -5 11 -8 14 -9 4 0 43 -4 87 -9 44
-5 85 -7 90 -6 6 2 22 4 36 6 15 1 32 5 38 9 6 4 11 3 11 -2 0 -9 89 -6 98 3
2 2 17 -1 33 -5 18 -5 29 -5 29 1 0 6 5 7 12 3 23 -15 140 -16 149 -2 5 7 9 8
9 2 0 -7 26 -9 78 -7 42 2 97 5 122 6 25 1 48 -2 51 -6 7 -10 189 -17 189 -8
0 3 38 6 85 5 47 0 85 3 85 7 0 4 12 4 28 -1 22 -8 74 -17 117 -22 17 -1 40 7
47 17 5 6 8 5 8 -2 0 -11 76 -11 225 -1 6 0 33 -3 60 -7 56 -8 58 -8 65 -6 24
8 329 9 356 2 28 -8 36 -6 44 7 5 9 10 12 10 5 0 -11 23 -11 210 1 19 1 46 -1
60 -6 43 -13 140 -16 140 -4 0 6 4 5 9 -3 6 -10 14 -12 23 -5 15 10 195 11
248 1 46 -9 76 -9 190 -1 108 8 152 9 230 2 30 -3 63 -1 73 4 11 6 17 5 17 -2
0 -6 4 -9 8 -6 10 6 78 15 154 20 31 2 61 6 66 10 6 3 12 2 14 -4 1 -5 29 -13
60 -16 46 -5 64 -3 84 11 15 9 24 13 20 7 -3 -5 0 -12 7 -14 12 -4 24 -4 154
6 40 3 74 2 77 -3 3 -4 36 -8 73 -8 61 -1 69 1 75 21 l6 21 1 -22 c1 -17 6
-21 24 -17 12 3 39 5 60 5 21 -1 48 4 59 10 16 9 19 8 13 -2 -5 -8 -4 -10 3
-5 18 11 52 16 52 8 0 -21 331 -20 357 1 7 5 21 6 30 1 21 -9 223 -14 223 -5
0 3 19 7 43 7 23 1 62 2 87 3 56 3 145 -4 159 -13 11 -7 15 0 12 18 -1 5 5 4
13 -3 8 -7 20 -10 26 -6 10 6 103 7 295 3 33 0 116 1 185 3 69 2 141 0 160 -4
48 -12 82 -9 92 6 4 6 8 8 8 2 0 -6 30 -9 77 -7 83 4 117 4 258 1 50 -1 113 2
140 7 28 4 91 7 140 7 55 -1 96 3 104 10 12 10 13 9 6 -2 -6 -11 -4 -13 8 -8
9 3 16 3 15 -1 -3 -12 31 -82 39 -82 5 0 16 -13 26 -29 16 -28 88 -101 147
-151 16 -14 36 -31 44 -37 8 -7 18 -13 21 -13 4 0 20 -9 36 -21 16 -11 29 -17
29 -14 0 4 7 -1 16 -9 8 -9 22 -16 30 -16 8 0 14 -4 14 -8 0 -4 21 -13 48 -21
26 -7 57 -17 68 -23 39 -18 226 -26 359 -15 136 12 206 26 270 53 22 10 44 17
49 16 4 -2 13 1 20 6 6 6 26 13 43 17 18 3 40 16 48 28 8 12 15 17 15 13 0 -5
18 10 41 32 22 23 45 40 50 36 5 -3 9 0 9 6 0 6 10 21 23 34 34 35 63 70 70
86 4 8 15 29 25 45 21 34 45 100 46 130 1 11 4 25 7 30 7 11 3 170 -4 200 -3
11 -6 23 -6 27 -1 4 -8 14 -17 22 -8 9 -11 16 -5 16 6 0 8 7 5 15 -4 8 -12 15
-20 15 -7 0 -21 14 -31 30 -9 16 -21 30 -26 30 -4 0 -5 -5 -2 -11 4 -6 -2 -5
-14 3 -12 7 -21 16 -21 21 0 4 5 5 12 1 7 -4 8 -3 4 5 -4 6 -11 9 -16 6 -4 -3
-13 2 -20 11 -7 8 -19 13 -27 10 -7 -3 -13 1 -13 9 0 8 -12 18 -27 21 -16 4
-33 11 -40 16 -7 5 -17 7 -23 3 -5 -3 -10 -2 -10 2 0 5 -12 10 -27 11 -15 1
-29 5 -32 10 -3 4 -22 8 -41 9 -19 2 -51 5 -70 8 -54 9 -250 12 -250 5 0 -4
-18 -5 -40 -4 -22 1 -40 -3 -40 -8 0 -6 -6 -8 -14 -5 -8 3 -17 3 -21 -1 -4 -4
-19 -8 -33 -9 -46 -4 -52 -6 -52 -16 0 -5 -7 -7 -15 -4 -8 4 -17 2 -21 -4 -3
-6 -12 -8 -20 -5 -8 3 -14 1 -14 -4 0 -6 -9 -10 -21 -10 -11 0 -17 -4 -14 -10
3 -6 -1 -7 -10 -4 -8 4 -26 -1 -40 -10 -13 -9 -31 -16 -39 -16 -7 0 -17 -7
-20 -16 -4 -10 -12 -14 -22 -10 -16 6 -153 -75 -167 -100 -5 -8 -12 -12 -18
-9 -5 4 -9 1 -9 -5 0 -6 -4 -9 -9 -6 -5 3 -25 -12 -44 -34 -20 -21 -49 -46
-64 -54 -15 -8 -36 -24 -45 -35 -16 -18 -68 -29 -110 -22 -5 0 -8 -3 -8 -8 0
-6 -15 -10 -32 -9 -29 0 -93 -8 -93 -12 0 -1 -13 -4 -28 -6 -16 -3 -26 -1 -23
4 6 9 0 11 -56 14 -21 2 -38 5 -38 8 0 4 -12 5 -27 3 -16 -2 -44 -4 -63 -6
-19 -1 -38 -6 -42 -12 -5 -6 -11 -5 -17 3 -7 11 -9 11 -14 -1 -4 -10 -14 -13
-33 -9 -20 4 -25 2 -19 -8 6 -10 4 -11 -6 -4 -8 5 -27 10 -44 12 -35 2 -88 10
-95 12 -18 7 -83 0 -95 -10 -12 -10 -15 -10 -15 0 0 11 -74 13 -95 1 -19 -10
-95 -12 -95 -2 0 5 -8 10 -17 11 -126 5 -290 -5 -308 -20 -7 -5 -14 -7 -17 -5
-19 19 -205 30 -225 13 -9 -7 -13 -7 -13 1 0 7 -9 9 -24 5 -13 -3 -38 -6 -57
-7 -19 -2 -40 -6 -46 -10 -7 -5 -13 -5 -13 -1 0 3 -6 1 -14 -5 -10 -9 -16 -8
-26 4 -7 8 -16 13 -20 10 -5 -3 -11 -2 -13 2 -5 8 -40 8 -182 -1 -62 -4 -105
-10 -112 -16 -9 -7 -29 -4 -35 4 -8 12 -208 14 -292 3 -33 -4 -68 -15 -79 -25
-11 -9 -17 -12 -14 -5 5 7 -6 16 -29 23 -41 14 -181 23 -188 12 -2 -4 -23 -7
-45 -6 -34 0 -41 -2 -36 -15 4 -14 4 -14 -7 -1 -14 16 -61 24 -52 9 3 -5 -6
-9 -20 -9 -14 0 -26 -5 -26 -10 0 -6 -10 -2 -22 10 -12 11 -33 21 -47 22 -77
5 -147 2 -158 -5 -7 -5 -13 -7 -13 -3 0 3 -12 1 -26 -4 -16 -7 -23 -7 -19 0 3
6 -1 10 -9 10 -8 0 -18 -5 -22 -11 -4 -7 -22 -9 -48 -5 -93 14 -187 17 -216 8
-19 -7 -32 -7 -36 -1 -3 6 -18 8 -32 4 -15 -3 -45 -8 -67 -10 -58 -8 -76 -15
-69 -28 3 -7 0 -5 -8 3 -25 29 -64 38 -144 34 -66 -3 -178 -11 -193 -13 -3 -1
4 -8 15 -16 10 -8 15 -15 10 -15 -5 0 -18 7 -28 16 -13 13 -21 14 -31 5 -8 -6
-17 -8 -21 -4 -16 17 -76 28 -131 26 -67 -3 -68 -3 -110 -2 -16 1 -61 -2 -98
-6 -45 -4 -72 -3 -81 4 -8 7 -43 12 -77 12 -71 -1 -88 -3 -106 -14 -8 -5 -13
-3 -13 4 0 13 -71 7 -127 -10 -22 -6 -33 -6 -33 0 0 6 -4 7 -10 4 -5 -3 -10
-2 -10 3 0 5 -39 10 -86 11 -68 2 -84 -1 -78 -11 6 -10 5 -11 -7 -1 -13 11
-41 12 -127 4 -7 0 -11 -4 -8 -9 2 -4 -12 -6 -32 -6 -20 1 -40 -3 -44 -9 -5
-8 -8 -7 -8 4 0 9 -6 16 -12 17 -7 0 -24 3 -38 7 -39 10 -150 14 -150 5 0 -4
-20 -6 -45 -5 -25 2 -45 -1 -45 -5 0 -5 -11 -7 -24 -4 -14 2 -27 0 -30 -5 -7
-10 -46 -3 -46 9 0 17 -139 33 -202 23 -28 -4 -35 -9 -31 -22 4 -12 2 -12 -9
3 -12 15 -21 17 -59 10 -60 -11 -119 -8 -144 8 -14 9 -155 8 -155 -1 0 -5 -27
-8 -60 -7 -33 1 -60 -3 -60 -7 0 -5 -5 -5 -12 -1 -8 5 -9 1 -5 -12 7 -18 7
-18 -7 0 -8 10 -19 16 -24 12 -5 -3 -32 1 -60 8 -57 15 -182 17 -182 3 0 -5
-11 -6 -24 -3 -15 4 -26 1 -29 -7 -4 -8 -6 -8 -6 0 -1 13 -80 7 -95 -7 -5 -5
-15 -6 -24 -3 -11 5 -13 2 -8 -8 4 -8 1 -6 -8 5 -17 21 -55 28 -166 30 -70 1
-75 0 -72 -19 2 -12 0 -16 -5 -8 -13 18 -66 22 -106 8 -21 -7 -40 -9 -43 -4
-3 5 -14 5 -25 -1 -10 -6 -19 -7 -19 -2 0 30 -250 51 -284 23 -11 -9 -16 -9
-21 0 -6 8 -10 7 -16 -2 -6 -9 -9 -10 -9 -2 0 8 -9 9 -29 3 -16 -4 -31 -6 -34
-4 -22 22 -291 22 -326 0 -10 -7 -12 -5 -6 3 6 10 3 11 -14 2 -16 -9 -38 -9
-88 1 -38 7 -80 12 -95 12 -16 0 -28 3 -28 8 0 5 -4 7 -8 4 -5 -3 -24 -8 -43
-11 -18 -3 -37 -11 -41 -18 -6 -9 -8 -9 -8 1 0 13 -35 13 -57 -1 -8 -5 -13 -3
-13 4 0 8 -4 8 -15 -1 -8 -7 -15 -9 -15 -4 -1 5 -10 -2 -20 -15 -11 -13 -20
-19 -20 -14 0 5 6 15 13 22 10 11 7 12 -16 7 -26 -6 -28 -5 -21 16 19 60 23
104 23 243 -1 136 -5 184 -25 295 -3 19 -6 41 -7 48 0 6 -4 12 -9 12 -5 0 -7
4 -4 9 13 21 -110 308 -168 394 -14 21 -26 42 -26 47 0 4 -4 10 -8 12 -4 2
-32 38 -61 81 -54 78 -156 187 -221 236 -19 14 -37 28 -40 31 -3 3 -32 23 -65
45 -33 22 -62 42 -65 45 -3 3 -39 22 -81 43 -121 59 -146 47 -90 -43 54 -88
102 -180 94 -180 -4 0 -2 -4 4 -8 7 -4 14 -22 16 -40 2 -18 7 -35 10 -39 4 -3
1 -13 -6 -21 -6 -8 -11 -18 -10 -21 13 -31 -62 -79 -119 -77 -66 2 -98 41
-173 209 -16 36 -63 160 -69 182 -2 6 -9 24 -15 40 -7 17 -25 64 -41 105 -15
41 -35 92 -44 112 -9 21 -17 41 -18 45 -1 5 -21 46 -43 93 -23 47 -45 95 -49
108 -4 12 -12 22 -17 22 -5 0 -9 9 -9 19 0 11 -4 21 -8 23 -4 2 -17 19 -29 38
l-22 35 317 -1 c174 -1 322 1 328 3 11 4 16 692 5 694 -3 1 -418 2 -921 3
l-915 1 -1 485 c-1 267 2 487 6 490 5 3 459 5 1009 5 685 -1 1001 3 1002 10 0
14 0 558 0 623 l-1 52 -1399 0 -1399 0 2 -46z m779 -1919 c-3 -9 -8 -14 -10
-11 -3 3 -2 9 2 15 9 16 15 13 8 -4z m37 11 c0 -2 -8 -10 -17 -17 -16 -13 -17
-12 -4 4 13 16 21 21 21 13z m74 -7 c4 -3 -7 -5 -24 -4 -17 1 -33 4 -36 7 -3
3 8 5 25 4 16 -1 32 -4 35 -7z m643 -55 c-3 -3 -12 -4 -19 -1 -8 3 -5 6 6 6
11 1 17 -2 13 -5z m18 -14 c-3 -5 -12 -10 -18 -10 -7 0 -6 4 3 10 19 12 23 12
15 0z m-467 -175 c-3 -3 -9 2 -12 12 -6 14 -5 15 5 6 7 -7 10 -15 7 -18z m69
-73 c7 -8 18 -23 24 -35 14 -26 5 -17 -44 44 -20 25 -37 50 -37 54 0 4 10 -5
22 -21 13 -16 28 -35 35 -42z m727 -1204 c16 -28 36 -60 45 -72 28 -35 155
-160 186 -183 17 -13 46 -34 65 -48 19 -14 40 -25 47 -25 7 0 13 -4 13 -10 0
-5 4 -10 10 -10 5 0 31 -13 57 -28 26 -16 66 -35 88 -44 22 -9 63 -26 90 -39
28 -12 52 -23 55 -23 3 -1 26 -14 52 -29 84 -50 152 -142 188 -251 16 -51 21
-161 9 -218 -9 -42 -12 -45 -40 -43 -20 2 -29 -2 -29 -12 0 -11 -4 -13 -12 -6
-7 6 -33 9 -58 7 -79 -7 -144 -6 -175 0 -16 4 -51 8 -78 10 -26 1 -50 6 -54 9
-3 4 -12 2 -19 -4 -8 -7 -14 -7 -19 1 -4 7 -12 7 -26 0 -11 -6 -24 -8 -29 -5
-6 3 -10 2 -10 -3 0 -5 -16 -8 -36 -7 -25 1 -40 -4 -51 -19 -8 -12 -13 -14
-11 -6 5 15 -9 19 -69 20 -13 0 -23 5 -23 10 0 5 -13 37 -29 70 -25 50 -51
116 -56 140 -1 3 -6 23 -13 45 -6 22 -13 54 -16 70 -2 17 -5 30 -6 30 -1 0 -3
14 -5 30 -2 17 -6 41 -9 55 -5 24 -15 111 -21 175 -3 41 -17 156 -20 175 -1 8
-6 47 -9 85 -4 39 -9 83 -12 98 -9 58 -12 107 -6 107 4 0 20 -23 36 -52z
m10916 -624 c0 -8 -5 -12 -10 -9 -6 4 -8 11 -5 16 9 14 15 11 15 -7z m90 -8
c-7 -7 -13 -7 -20 0 -6 6 -3 10 10 10 13 0 16 -4 10 -10z m-6926 -431 c3 -8 1
-15 -4 -15 -6 0 -10 7 -10 15 0 8 2 15 4 15 2 0 6 -7 10 -15z m5410 -7 c-3 -4
-9 -8 -15 -8 -5 0 -9 4 -9 8 0 5 7 9 15 9 8 0 12 -4 9 -9z m-6759 -8 c3 -5 1
-10 -4 -10 -6 0 -11 5 -11 10 0 6 2 10 4 10 3 0 8 -4 11 -10z m4925 0 c-8 -5
-19 -10 -25 -10 -5 0 -3 5 5 10 8 5 20 10 25 10 6 0 3 -5 -5 -10z m2135 0 c3
-5 1 -10 -4 -10 -6 0 -11 5 -11 10 0 6 2 10 4 10 3 0 8 -4 11 -10z m205 -27
c-11 -17 -11 -17 -6 0 3 10 6 24 7 30 0 9 2 9 5 0 3 -7 0 -20 -6 -30z m-3975
18 c3 -5 2 -12 -3 -15 -5 -3 -9 1 -9 9 0 17 3 19 12 6z m3322 -6 c0 -8 -4 -12
-9 -9 -5 3 -6 10 -3 15 9 13 12 11 12 -6z m-1881 -22 c-10 -10 -19 5 -10 18 6
11 8 11 12 0 2 -7 1 -15 -2 -18z m1035 0 c-12 -20 -14 -14 -5 12 4 9 9 14 11
11 3 -2 0 -13 -6 -23z m499 23 c0 -3 -4 -8 -10 -11 -5 -3 -10 -1 -10 4 0 6 5
11 10 11 6 0 10 -2 10 -4z m310 -6 c0 -5 -5 -10 -11 -10 -5 0 -7 5 -4 10 3 6
8 10 11 10 2 0 4 -4 4 -10z m-3005 -12 c3 -3 -1 -8 -9 -11 -8 -3 -17 0 -19 8
-5 13 16 15 28 3z m1520 2 c3 -6 -1 -7 -9 -4 -18 7 -21 14 -7 14 6 0 13 -4 16
-10z m1399 -9 c3 -5 -1 -11 -9 -14 -9 -4 -12 -1 -8 9 6 16 10 17 17 5z m716 5
c0 -2 -8 -10 -17 -17 -16 -13 -17 -12 -4 4 13 16 21 21 21 13z m-390 -24 c0
-5 -7 -9 -15 -9 -8 0 -12 4 -9 9 3 4 9 8 15 8 5 0 9 -4 9 -8z m-10005 -22 c3
-5 1 -10 -4 -10 -6 0 -11 5 -11 10 0 6 2 10 4 10 3 0 8 -4 11 -10z m-2628 -6
c-3 -3 -12 -4 -19 -1 -8 3 -5 6 6 6 11 1 17 -2 13 -5z m1390 -9 c0 -7 -8 -10
-19 -7 -20 5 -17 19 5 19 7 0 14 -6 14 -12z m2523 1 c0 -2 -7 -7 -16 -10 -8
-3 -12 -2 -9 4 6 10 25 14 25 6z m4780 -6 c0 -5 -5 -10 -11 -10 -5 0 -7 5 -4
10 3 6 8 10 11 10 2 0 4 -4 4 -10z m-7805 -10 c3 -5 1 -10 -4 -10 -6 0 -11 5
-11 10 0 6 2 10 4 10 3 0 8 -4 11 -10z m8736 -23 c-10 -9 -11 -8 -5 6 3 10 9
15 12 12 3 -3 0 -11 -7 -18z m-9596 3 c3 -5 1 -10 -4 -10 -6 0 -11 5 -11 10 0
6 2 10 4 10 3 0 8 -4 11 -10z m3525 -24 c0 -6 4 -5 9 3 7 11 28 14 78 13 111
-3 116 -3 156 0 20 2 37 0 37 -4 0 -5 -4 -8 -9 -8 -5 0 -22 -5 -38 -12 -67
-27 -111 -34 -172 -27 -78 9 -151 31 -151 45 0 3 6 4 13 1 6 -2 21 -1 32 3 24
9 45 2 45 -14z m4520 20 c0 -11 -19 -15 -25 -6 -3 5 1 10 9 10 9 0 16 -2 16
-4z m-8436 -86 c-6 -6 -10 -3 -10 10 0 13 4 16 10 10 7 -7 7 -13 0 -20z m43
-205 c0 -8 -4 -12 -9 -9 -5 3 -6 10 -3 15 9 13 12 11 12 -6z m14511 -60 c-3
-3 -9 2 -12 12 -6 14 -5 15 5 6 7 -7 10 -15 7 -18z m-10817 -223 c-7 -2 -18 1
-23 6 -8 8 -4 9 13 5 13 -4 18 -8 10 -11z m46 -8 c-3 -3 -12 -4 -19 -1 -8 3
-5 6 6 6 11 1 17 -2 13 -5z m43 -4 c8 -5 11 -10 5 -10 -5 0 -17 5 -25 10 -8 5
-10 10 -5 10 6 0 17 -5 25 -10z m-290 -604 c8 -3 29 -7 45 -10 17 -2 53 -11
80 -20 167 -56 285 -164 334 -307 19 -55 27 -201 13 -224 -4 -5 -7 -14 -8 -20
-11 -72 -127 -205 -217 -249 -48 -23 -167 -68 -175 -66 -2 1 -56 -6 -122 -16
-19 -3 -175 -8 -347 -11 l-312 -5 0 472 -1 472 348 -5 c191 -3 354 -8 362 -11z
m131 -1638 c35 -4 80 -10 102 -13 21 -3 48 -10 60 -17 12 -6 23 -11 25 -10 8
7 67 -16 133 -50 115 -59 205 -157 238 -260 19 -60 24 -92 27 -178 5 -149 -37
-274 -125 -368 -26 -28 -53 -52 -58 -52 -6 0 -16 -6 -22 -14 -12 -14 -110 -65
-134 -70 -7 -2 -19 -6 -27 -9 -24 -10 -92 -26 -135 -32 -22 -4 -47 -8 -57 -11
-24 -7 -249 -14 -573 -16 l-290 -3 -2 558 -2 558 388 -2 c214 -1 417 -6 452
-11z"/>
<path d="M5549 12658 c-1 -2 -2 -936 -3 -2076 l-1 -2072 385 0 386 0 -1 1341
c0 737 3 1343 8 1346 4 2 4 10 0 16 -9 15 -10 126 -1 155 4 12 4 22 0 22 -6 0
-7 184 -1 200 1 3 0 10 -1 15 -1 6 -2 39 -1 75 1 73 1 79 0 170 -1 36 0 70 1
75 1 6 1 12 0 15 -5 14 -4 120 2 120 3 0 3 12 -1 28 -4 15 -4 42 0 60 4 17 4
34 0 36 -9 6 -6 60 4 75 3 6 3 11 -2 11 -7 0 -9 94 -3 110 1 3 2 19 1 35 -1
28 -1 38 -1 68 0 6 -1 38 -2 70 -2 31 0 57 3 57 3 0 4 11 1 25 l-4 25 -384 0
c-211 0 -384 -1 -385 -2z"/>
<path d="M7045 10588 l0 -2073 387 -3 388 -2 0 732 c-1 403 0 774 0 824 0 89
1 92 24 96 13 3 31 1 40 -4 9 -5 16 -5 16 -1 0 10 122 9 138 -1 7 -4 12 -4 12
1 0 4 39 8 86 8 83 0 87 -1 110 -30 13 -16 24 -35 24 -42 0 -6 3 -13 8 -15 4
-1 15 -19 24 -38 28 -57 177 -330 188 -345 4 -5 28 -48 52 -95 24 -47 51 -96
60 -110 33 -54 140 -259 138 -266 -1 -4 4 -10 12 -15 7 -5 13 -12 13 -16 1
-10 36 -76 44 -83 3 -3 16 -25 28 -50 12 -25 39 -74 59 -110 20 -36 59 -108
87 -160 28 -52 61 -113 74 -135 13 -22 28 -51 35 -65 7 -14 20 -37 31 -52 l18
-28 430 2 c236 1 432 5 435 10 6 9 -36 91 -48 96 -5 2 -8 8 -8 14 0 6 -64 121
-142 257 -77 135 -149 261 -160 279 -10 17 -28 49 -39 70 -12 20 -36 62 -52
92 -17 30 -48 84 -69 119 -21 34 -38 65 -38 67 0 3 -11 21 -23 42 -13 20 -35
57 -49 82 -14 25 -78 137 -143 250 -65 113 -130 225 -144 250 -14 25 -30 48
-35 52 -6 4 -7 8 -2 8 5 0 2 8 -6 18 -33 37 -40 61 -24 78 8 8 18 14 21 13 25
-6 313 121 346 153 8 7 32 25 54 40 74 51 225 209 225 237 0 6 4 11 8 11 10 0
88 151 84 162 -1 5 3 8 10 8 6 0 8 3 5 7 -4 3 0 17 8 30 9 13 13 23 11 23 -3
0 2 19 10 42 18 51 27 94 28 133 1 17 4 32 7 35 17 13 26 259 14 374 -9 82
-38 223 -55 261 -5 11 -14 37 -20 57 -16 52 -71 164 -114 231 -62 97 -234 257
-275 257 -6 0 -11 5 -11 10 0 6 -6 10 -14 10 -7 0 -19 7 -26 15 -7 9 -15 13
-18 11 -3 -3 -17 3 -31 13 -57 40 -333 142 -416 155 -16 2 -31 5 -32 6 -5 4
-15 6 -68 15 -27 4 -57 9 -65 10 -57 10 -104 16 -165 21 -38 3 -92 8 -120 11
-27 2 -349 7 -715 10 l-665 5 0 -2074z m1325 1368 c113 -7 161 -13 248 -31 56
-12 67 -15 101 -26 97 -29 174 -74 233 -134 28 -29 90 -137 86 -152 0 -5 2
-15 5 -23 26 -62 30 -242 8 -337 -25 -107 -127 -223 -239 -274 -63 -28 -157
-59 -196 -64 -17 -3 -42 -7 -56 -10 -59 -12 -111 -17 -195 -20 -49 -2 -90 -5
-90 -5 0 -1 -12 -3 -27 -4 -16 -1 -28 2 -28 7 0 4 -5 5 -12 1 -6 -4 -96 -8
-200 -9 l-188 -2 0 103 c0 57 0 268 0 469 0 201 0 401 0 445 l0 80 233 -5
c127 -2 270 -7 317 -9z"/>
<path d="M10515 11995 c0 -366 4 -665 8 -665 5 0 5 -5 1 -12 -6 -10 -9 -1122
-3 -1138 1 -3 0 -9 -1 -15 -1 -5 -2 -80 -1 -165 1 -85 2 -162 1 -170 0 -8 0
-33 0 -55 0 -22 0 -47 0 -55 0 -8 0 -53 1 -100 0 -47 -1 -103 -2 -125 -1 -22
-1 -46 0 -52 1 -7 1 -21 1 -30 0 -51 1 -189 1 -198 0 -5 0 -35 -1 -65 -1 -30
-1 -59 0 -65 1 -5 1 -14 0 -20 -1 -5 -1 -39 -1 -75 1 -36 1 -85 1 -110 -1 -25
-1 -52 -1 -60 2 -37 1 -77 -2 -95 -2 -11 -1 -34 4 -52 4 -20 3 -33 -3 -33 -5
0 -6 -5 -3 -11 4 -6 7 -35 6 -65 l0 -54 1397 0 1397 0 0 348 c1 191 -2 349 -6
352 -4 3 -460 5 -1013 5 l-1006 0 2 535 3 535 900 2 c495 1 909 2 920 2 20 1
20 7 20 349 0 263 -3 348 -12 352 -7 3 -422 5 -922 5 l-909 -1 -4 54 c-2 30
-1 55 2 57 3 2 3 182 0 400 -3 218 -3 399 0 401 2 3 4 17 5 32 l0 27 975 2
c536 1 991 2 1010 2 l35 1 0 345 0 345 -1400 0 -1400 0 0 -665z"/>
<path d="M7205 7366 c-27 -72 -53 -142 -58 -156 -6 -14 -12 -32 -13 -40 -1 -8
-13 -44 -27 -80 -32 -82 -145 -400 -149 -420 -2 -8 -6 -17 -10 -20 -4 -3 -9
-15 -11 -25 -2 -11 -7 -27 -10 -35 -40 -104 -80 -218 -80 -227 0 -7 -4 -13 -9
-13 -4 0 -7 -3 -6 -7 3 -7 -25 -89 -72 -218 -10 -27 -46 -129 -80 -225 -34
-96 -65 -184 -70 -195 -17 -42 -42 -111 -45 -125 -2 -8 -9 -28 -16 -45 -7 -16
-13 -32 -14 -35 -3 -8 -14 -39 -41 -111 -14 -36 -27 -74 -29 -85 -7 -29 -49
-148 -55 -154 -3 -3 -6 -12 -8 -20 -3 -13 -53 -160 -69 -200 -4 -8 -7 -17 -7
-20 -1 -3 -6 -18 -13 -35 -25 -63 -85 -230 -87 -240 -4 -18 -46 -130 -56 -147
-6 -10 -10 -26 -10 -36 0 -9 -7 -28 -16 -40 -8 -12 -13 -22 -10 -22 5 0 -51
-168 -77 -230 -5 -14 -11 -29 -13 -35 -1 -5 -21 -62 -44 -125 -23 -63 -42
-119 -43 -125 -1 -5 -4 -12 -7 -15 -3 -3 -21 -48 -39 -100 -27 -77 -73 -205
-104 -290 -17 -48 -35 -115 -32 -120 2 -3 203 -6 446 -5 l443 0 18 50 c10 28
39 111 65 185 25 74 50 146 56 160 5 14 11 30 13 35 1 6 8 24 15 40 6 17 13
36 15 42 3 18 34 102 50 140 8 17 14 35 14 41 0 5 8 27 17 48 9 22 18 44 19
49 1 6 21 62 44 125 23 63 43 121 44 129 6 35 24 36 667 35 349 0 639 -3 645
-7 6 -3 17 -28 24 -54 7 -27 16 -52 19 -58 3 -5 6 -12 7 -15 0 -3 3 -12 7 -20
3 -8 17 -49 32 -90 15 -41 29 -82 32 -90 3 -8 7 -19 9 -25 1 -5 14 -40 28 -77
14 -38 22 -68 18 -68 -4 0 -2 -4 4 -8 6 -4 25 -47 42 -97 17 -49 43 -124 57
-165 15 -41 28 -79 29 -85 2 -5 9 -23 15 -40 7 -16 15 -39 17 -50 2 -11 8 -31
13 -45 15 -40 20 -60 20 -67 0 -4 7 -10 16 -13 24 -9 873 -6 881 3 6 6 -31
133 -56 192 -4 11 -13 34 -18 50 -71 201 -115 323 -123 337 -5 10 -9 26 -9 36
0 10 -4 22 -10 28 -5 5 -11 18 -13 29 -2 11 -7 27 -10 35 -4 8 -22 60 -42 115
-19 55 -38 107 -42 115 -3 8 -7 20 -9 25 -1 6 -19 55 -39 110 -20 55 -38 105
-39 110 -2 6 -8 23 -14 38 -7 16 -12 34 -12 40 0 7 -6 23 -13 37 -7 14 -23 57
-36 95 -13 39 -27 74 -32 80 -5 5 -9 19 -9 31 0 13 -4 26 -10 29 -5 3 -10 15
-10 26 0 10 -4 27 -10 37 -5 9 -27 69 -50 132 -22 63 -43 122 -47 130 -3 8 -7
17 -7 20 -1 3 -5 11 -9 18 -5 6 -6 12 -2 12 3 0 -1 13 -10 30 -8 16 -15 31
-15 32 3 8 -43 132 -53 146 -5 6 -7 12 -3 12 3 0 -4 24 -15 53 -12 28 -22 57
-24 62 -1 6 -5 17 -8 25 -4 8 -16 42 -27 75 -12 33 -26 69 -31 80 -6 12 -11
27 -13 35 -2 8 -6 24 -10 35 -5 11 -12 34 -18 50 -14 41 -22 63 -42 108 -9 21
-16 43 -16 50 0 10 -30 94 -60 172 -17 42 -38 100 -38 105 0 3 -6 19 -12 35
-17 49 -46 125 -75 203 -15 39 -28 78 -29 85 -2 6 -7 23 -13 37 -5 14 -22 61
-38 105 -15 44 -34 95 -42 113 -8 18 -16 40 -18 50 -2 9 -24 73 -48 142 -25
69 -47 132 -50 140 -35 96 -91 246 -94 250 -2 2 -203 4 -447 5 l-443 1 -48
-130z m542 -976 c3 -8 7 -19 8 -25 0 -5 4 -17 7 -25 4 -8 19 -51 33 -95 15
-44 29 -87 33 -95 3 -8 6 -18 7 -22 2 -5 4 -10 5 -13 1 -3 3 -8 5 -12 2 -9 7
-23 24 -73 7 -19 21 -60 31 -90 10 -30 48 -140 85 -245 36 -104 68 -197 70
-205 2 -8 26 -79 53 -157 28 -79 48 -143 47 -143 -2 0 3 -12 10 -27 8 -15 10
-30 6 -33 -8 -4 -808 -6 -919 -1 -27 1 -31 4 -23 19 8 15 28 72 35 97 2 6 6
17 9 25 24 61 56 160 51 160 -2 0 1 10 8 23 7 12 13 24 14 27 0 3 3 12 6 20
10 25 80 234 83 245 1 6 5 17 8 25 18 45 196 559 224 645 14 44 28 84 30 89 3
4 14 -16 24 -45 11 -30 22 -61 26 -69z"/>
<path d="M10070 5424 c0 -1966 1 -2073 18 -2077 27 -7 736 -3 747 5 7 4 10
287 9 817 0 446 2 811 5 812 4 1 95 2 205 3 l199 2 32 -50 c17 -28 35 -58 39
-66 4 -8 12 -24 19 -35 7 -11 37 -65 67 -120 30 -55 59 -108 65 -117 5 -9 30
-57 55 -105 25 -48 47 -90 50 -93 3 -3 19 -30 34 -60 34 -67 46 -87 117 -215
70 -123 102 -182 169 -310 29 -55 64 -118 77 -140 13 -22 33 -58 44 -80 11
-22 26 -49 32 -60 7 -11 32 -56 56 -100 24 -44 48 -82 52 -85 5 -3 203 -5 440
-5 334 0 433 3 437 13 2 6 -1 12 -8 12 -6 0 -8 4 -5 10 3 6 2 10 -3 10 -5 0
-12 8 -15 18 -4 9 -17 35 -30 57 -14 22 -73 126 -133 230 -59 105 -154 270
-211 369 -57 98 -103 182 -103 187 0 5 -4 9 -10 9 -5 0 -10 5 -10 10 0 6 -46
90 -102 188 -55 97 -137 240 -181 317 -44 77 -106 186 -138 242 l-57 102 67
22 c36 12 82 29 101 37 19 9 37 16 40 17 14 3 170 85 180 95 3 3 25 19 50 35
45 30 174 155 218 211 70 91 157 320 176 464 13 103 18 167 16 195 -2 44 -3
57 0 85 3 24 -3 86 -16 195 -3 28 -12 77 -21 110 -8 33 -16 67 -18 75 -9 40
-57 153 -91 211 -98 170 -250 307 -444 402 -47 23 -87 42 -90 43 -3 0 -12 4
-20 7 -19 9 -130 46 -150 51 -8 2 -42 11 -75 19 -33 9 -71 18 -85 21 -14 3
-36 7 -50 11 -14 3 -41 7 -60 10 -19 3 -51 8 -70 11 -19 3 -53 7 -75 9 -22 2
-65 7 -95 10 -176 20 -348 25 -952 29 l-498 3 0 -2073z m1405 1351 c57 -6 87
-11 130 -20 17 -4 41 -8 55 -10 14 -2 25 -4 25 -5 0 -1 9 -3 20 -5 98 -18 218
-82 277 -147 82 -89 109 -184 105 -363 -3 -135 -24 -223 -63 -266 -10 -11 -13
-19 -9 -19 5 0 -18 -25 -50 -55 -33 -30 -65 -55 -72 -55 -7 0 -13 -5 -13 -11
0 -5 -4 -8 -9 -4 -5 3 -12 1 -15 -4 -5 -8 -86 -40 -118 -47 -5 -1 -9 -2 -10
-4 -5 -3 -42 -10 -68 -12 -14 -1 -29 -4 -35 -8 -5 -3 -26 -7 -45 -9 -19 -2
-42 -7 -51 -11 -8 -5 -21 -5 -29 0 -8 5 -19 6 -25 2 -13 -8 -31 -9 -357 -16
-207 -4 -268 -3 -269 7 -5 34 -5 1063 -1 1071 5 9 535 1 627 -9z"/>
</g>
</svg>
